<?xml version="1.0" encoding="UTF-8"?>
<!DOCTYPE svg PUBLIC "-//W3C//DTD SVG 1.1//EN" "http://www.w3.org/Graphics/SVG/1.1/DTD/svg11.dtd">
<!-- Creator: CorelDRAW X7 -->
<svg xmlns="http://www.w3.org/2000/svg" xml:space="preserve" width="297mm" height="210mm" version="1.1" style="shape-rendering:geometricPrecision; text-rendering:geometricPrecision; image-rendering:optimizeQuality; fill-rule:evenodd; clip-rule:evenodd"
viewBox="0 0 29700 21000"
 xmlns:xlink="http://www.w3.org/1999/xlink"
 enable-background="new 0 0 470.03 470.03">
 <defs>
  <style type="text/css">
   <![CDATA[
    .fil1 {fill:#2C3E50}
    .fil0 {fill:#34495E}
   ]]>
  </style>
 </defs>
 <g id="Camada_x0020_1">
  <metadata id="CorelCorpID_0Corel-Layer"/>
  <rect class="fil0" x="7600" y="6493" width="8791" height="4936"/>
  <g id="_2048433346224">
   <g>
    <path class="fil1" d="M9416 8955l-59 -177c17,-7 25,-27 19,-44 -6,-19 -27,-30 -46,-23l-153 51c-19,6 -30,27 -23,46 5,18 24,28 42,24l59 177c-31,25 -54,57 -69,94 -2,6 1,13 7,16 3,1 6,1 8,0 3,-1 6,-4 8,-7 14,-36 37,-67 67,-90 4,-3 6,-8 4,-13l-61 -185 65 -21c7,-2 10,-9 8,-16 -2,-6 -9,-9 -16,-7l-84 28c-6,2 -13,-2 -15,-8 -3,-6 1,-13 7,-15l154 -51c6,-3 13,1 15,7 2,7 -1,14 -7,16l-23 7c-7,2 -10,9 -8,16 2,6 9,9 15,7l4 -1 61 185c2,4 7,8 12,8 89,1 169,59 197,144 37,110 -23,229 -133,266 -26,9 -53,12 -80,10 -7,0 -13,5 -13,12 0,6 5,12 11,13 31,2 61,-2 90,-12 122,-41 189,-174 148,-297 -31,-92 -115,-156 -211,-160z"/>
    <circle class="fil1" transform="matrix(0.0343866 -0.0114513 0.0114513 0.0343866 9503.72 9201.28)" r="335"/>
    <circle class="fil1" transform="matrix(0.0343866 -0.0114513 0.0114513 0.0343866 9472.98 9262.71)" r="335"/>
    <path class="fil1" d="M9386 9350c-7,-1 -13,4 -14,11 -1,7 4,13 11,13 27,4 54,1 80,-8 98,-32 150,-138 118,-235 -10,-32 -29,-59 -53,-81 -4,-3 -9,-4 -13,-2l-4 2c-1,0 -1,1 -2,1 -16,11 -23,22 -28,30 -6,10 -10,16 -26,21 -14,5 -22,1 -33,-3 -12,-5 -27,-11 -49,-4 -22,8 -30,22 -37,33 -6,10 -11,17 -24,22 -16,5 -23,3 -34,-1 -9,-4 -21,-8 -40,-8 -1,0 -1,1 -2,1l-4 0c-5,1 -9,5 -10,10 0,0 0,0 0,1 -2,6 3,13 9,14 3,0 6,0 8,-1l1 0c13,-1 21,2 30,5 12,5 25,10 49,2 23,-8 31,-21 38,-33 6,-10 10,-17 24,-22 13,-4 21,-1 32,3 12,5 27,12 49,4 25,-8 32,-19 39,-31 5,-6 9,-13 17,-20 18,18 32,40 40,64 28,85 -18,177 -102,205 -23,8 -47,10 -70,7l0 0z"/>
    <path class="fil1" d="M9116 9061l-76 -228c16,-8 25,-27 19,-45 -6,-19 -27,-29 -46,-23l-154 51c-19,7 -29,27 -23,46 6,18 25,28 42,24l62 185c2,6 9,10 15,8 7,-2 10,-9 8,-16l-61 -184 65 -22c6,-2 10,-9 8,-15 -3,-7 -9,-10 -16,-8l-84 28c-7,2 -14,-1 -16,-7 -2,-7 2,-14 8,-16l154 -51c6,-2 13,1 15,8 2,6 -1,13 -8,15l-23 8c-6,2 -9,9 -7,15 2,6 9,10 15,8l4 -1 77 230c0,1 1,3 1,4l220 286c14,17 18,36 13,53 -5,16 -19,29 -40,36l-238 79c-21,7 -40,5 -54,-5 -14,-10 -21,-28 -21,-50l4 -361c0,-6 -5,-12 -12,-12 -7,0 -12,5 -12,12l-4 361c-1,30 10,55 31,70 20,15 47,18 76,8l238 -79c28,-9 48,-28 55,-52 8,-25 2,-51 -16,-75l-219 -285z"/>
    <path class="fil1" d="M9017 9359c-4,-1 -8,-1 -11,2 -4,2 -6,6 -6,9l-1 105c0,13 4,24 11,29 8,6 19,7 32,2l238 -79c13,-4 22,-12 25,-21 2,-8 -1,-19 -9,-30l-63 -83c-3,-3 -7,-5 -11,-5 -3,0 -7,2 -9,6 -5,7 -10,12 -24,17 -14,5 -21,2 -32,-3 -13,-5 -28,-11 -50,-4 -22,8 -30,22 -37,33 -6,10 -10,17 -24,22 -14,5 -22,3 -29,0l0 0zm74 -10c6,-10 10,-17 24,-22 14,-4 21,-1 32,4 12,4 28,11 50,3 12,-4 20,-9 25,-14l55 71c3,4 4,7 4,8 -1,1 -3,3 -8,5l-238 79c-5,2 -9,2 -10,2 -1,-2 -2,-5 -2,-10l1 -89c8,1 18,0 30,-4 22,-7 30,-21 37,-33l0 0z"/>
   </g>
  </g>
  <g id="_2048433342480">
   <g>
    <g>
     <path class="fil1" d="M10856 8466c-21,0 -39,14 -44,34l-146 0 -30 30 0 -215 116 0c26,0 46,-21 46,-46 0,-26 -20,-46 -46,-46l-99 0 46 -47 113 0c5,20 23,35 44,35 26,0 47,-21 47,-46 0,-26 -21,-47 -47,-47 -21,0 -39,15 -44,35l-123 0 -69 70 -15 0c19,-17 31,-42 31,-70 0,-51 -41,-93 -92,-93 -24,0 -47,10 -63,25l-60 -59 -145 0c-5,-20 -23,-35 -45,-35 -25,0 -46,21 -46,46 0,26 21,47 46,47 22,0 40,-15 45,-35l136 0 54 54c-9,15 -15,32 -15,50 0,28 12,53 32,70l-148 0c-25,0 -46,20 -46,46 0,25 21,46 46,46l116 0 0 42 -51 51 -124 0c-5,-20 -23,-35 -45,-35 -25,0 -46,21 -46,46 0,26 21,47 46,47 22,0 40,-15 45,-35l134 0 41 -42 0 257 -30 -30 -145 0c-5,-20 -23,-35 -45,-35 -25,0 -46,21 -46,47 0,25 21,46 46,46 22,0 40,-15 45,-35l136 0 39 40 0 30 185 0 0 -146 40 -40 136 0c5,20 23,35 44,35 26,0 47,-21 47,-46 0,-26 -21,-46 -47,-46zm0 -324c13,0 23,10 23,23 0,12 -10,23 -23,23 -12,0 -23,-11 -23,-23 0,-13 11,-23 23,-23zm-625 -82c-12,0 -23,-10 -23,-23 0,-12 11,-23 23,-23 13,0 23,11 23,23 0,13 -10,23 -23,23zm0 382c-12,0 -23,-10 -23,-23 0,-12 11,-23 23,-23 13,0 23,11 23,23 0,13 -10,23 -23,23zm0 209c-12,0 -23,-11 -23,-23 0,-13 11,-23 23,-23 13,0 23,10 23,23 0,12 -10,23 -23,23zm463 -405l58 0c13,0 23,10 23,23 0,13 -10,23 -23,23l-58 0 0 -46zm-220 -93c0,-38 32,-69 70,-69 38,0 69,31 69,69 0,38 -31,70 -69,70 -38,0 -70,-32 -70,-70zm92 93l-22 27 -22 -27 44 0zm-173 46l-58 0c-12,0 -23,-10 -23,-23 0,-13 11,-23 23,-23l58 0 0 46zm139 394l-58 0 0 -24 58 0 0 24zm81 0l-58 0 0 -24 58 0 0 24zm0 -47l-58 0 0 -150 -23 0 0 150 -58 0 0 -197 139 0 0 197zm0 -347l0 127 -139 0 0 -127 -58 0 0 -46 76 0 52 65 52 -65 75 0 0 46 -58 0zm243 243c-12,0 -23,-10 -23,-23 0,-13 11,-23 23,-23 13,0 23,10 23,23 0,13 -10,23 -23,23z"/>
    </g>
   </g>
   <g>
   </g>
   <g>
   </g>
   <g>
   </g>
   <g>
   </g>
   <g>
   </g>
   <g>
   </g>
   <g>
   </g>
   <g>
   </g>
   <g>
   </g>
   <g>
   </g>
   <g>
   </g>
   <g>
   </g>
   <g>
   </g>
   <g>
   </g>
   <g>
   </g>
  </g>
  <g id="_2048408214560">
   <g>
    <path class="fil1" d="M8336 8133c-41,0 -75,33 -75,74 0,41 34,75 75,75 41,0 74,-34 74,-75 0,-41 -33,-74 -74,-74zm0 128c-30,0 -54,-24 -54,-54 0,-30 24,-54 54,-54 30,0 54,24 54,54 0,30 -24,54 -54,54z"/>
    <path class="fil1" d="M8336 8176c-6,0 -10,4 -10,10 0,5 4,10 10,10 6,0 11,5 11,11 0,6 5,10 10,10 6,0 10,-4 10,-10 0,-17 -14,-31 -31,-31z"/>
    <path class="fil1" d="M8646 8207c0,-33 -34,-63 -95,-85 -2,-1 -3,-1 -5,-2 1,-1 1,-3 2,-5 28,-58 30,-103 7,-127 -24,-23 -69,-21 -127,7 -2,1 -4,1 -5,2 -1,-2 -1,-3 -2,-5 -22,-61 -52,-95 -85,-95 -33,0 -64,34 -85,95 -1,2 -2,3 -2,5 -2,-1 -4,-1 -5,-2 -59,-28 -104,-30 -127,-7 -24,24 -21,69 6,127 1,2 2,4 3,5 -2,1 -4,1 -6,2 -61,22 -94,52 -94,85 0,33 33,64 94,85 2,1 4,2 6,2 -1,2 -2,4 -3,5 -27,59 -30,104 -6,127 10,11 26,16 45,16 22,0 50,-7 82,-22 1,-1 3,-2 5,-3 0,2 1,4 2,6 21,61 52,94 85,94 33,0 63,-33 85,-94 1,-2 1,-4 2,-6 1,1 3,2 5,3 32,15 59,22 82,22 19,0 34,-5 45,-16 23,-23 21,-68 -7,-127 -1,-1 -1,-3 -2,-5 2,0 3,-1 5,-2 61,-21 95,-52 95,-85zm-210 -194c30,-14 55,-21 74,-21 13,0 24,3 31,10 16,17 13,55 -11,105 -1,2 -2,5 -4,7 -24,-7 -51,-13 -80,-17 -4,-29 -10,-56 -17,-80 2,-2 5,-3 7,-4zm-3 194c0,14 -1,27 -1,40 -9,10 -18,19 -28,29 -9,9 -19,19 -28,27 -14,1 -27,1 -40,1 -14,0 -27,0 -40,-1 -10,-8 -19,-18 -29,-27 -9,-10 -19,-19 -27,-29 -1,-13 -1,-26 -1,-40 0,-13 0,-26 1,-40 8,-9 18,-19 27,-28 10,-10 19,-19 29,-28 13,0 26,-1 40,-1 13,0 26,1 40,1 9,9 19,18 28,28 10,9 19,19 28,28 0,14 1,27 1,40zm-14 -83c-4,-3 -8,-7 -12,-11 7,1 14,2 21,2 0,7 1,14 2,21 -4,-4 -8,-8 -11,-12zm-35 -33c-11,-9 -21,-18 -32,-26 20,-15 40,-28 59,-39 6,21 10,44 14,69 -14,-2 -27,-3 -41,-4zm-32 -1c-6,0 -11,0 -16,0 -6,0 -11,0 -16,0 5,-4 10,-8 16,-13 5,5 10,9 16,13zm-64 1c-14,1 -28,2 -41,4 3,-25 8,-48 14,-69 19,11 39,24 58,39 -10,8 -21,17 -31,26zm-24 22c-4,4 -7,8 -11,11 -4,4 -8,8 -11,12 0,-7 1,-14 2,-21 7,0 13,-1 20,-2zm-44 46c-9,11 -18,21 -27,32 -15,-20 -27,-40 -38,-59 21,-6 44,-10 68,-14 -1,14 -2,27 -3,41zm-1 32c0,6 0,11 0,16 0,6 0,11 0,16 -5,-5 -9,-10 -13,-16 4,-5 8,-10 13,-16zm1 64c1,14 2,28 3,41 -24,-3 -47,-8 -68,-14 11,-19 23,-39 38,-58 9,10 18,21 27,31zm22 24c3,3 7,7 11,11 4,4 7,8 11,11 -7,0 -13,-1 -20,-2 -1,-7 -2,-13 -2,-20zm46 44c10,9 21,18 31,27 -19,15 -39,27 -58,38 -6,-21 -11,-44 -14,-68 13,1 27,2 41,3zm32 1c5,0 10,0 16,0 5,0 10,0 16,0 -6,5 -11,9 -16,13 -6,-4 -11,-8 -16,-13zm64 -1c14,-1 27,-2 41,-3 -4,24 -8,47 -14,68 -19,-11 -39,-23 -59,-38 11,-9 21,-18 32,-27zm23 -22c4,-3 8,-7 12,-11 3,-4 7,-8 11,-11 -1,7 -2,13 -2,20 -7,1 -14,2 -21,2zm44 -46c10,-10 19,-21 27,-31 15,19 28,39 39,58 -21,6 -44,11 -69,14 2,-13 3,-27 3,-41zm2 -32c0,-5 0,-10 0,-16 0,-5 0,-10 0,-16 4,6 8,11 13,16 -5,6 -9,11 -13,16zm-2 -64c0,-14 -1,-27 -3,-41 25,4 48,8 69,14 -11,19 -24,39 -39,59 -8,-11 -17,-21 -27,-32zm-182 -160c19,-52 43,-82 67,-82 23,0 48,30 66,82 1,2 2,5 3,8 -23,12 -46,27 -69,45 -24,-18 -47,-33 -69,-45 1,-3 2,-6 2,-8zm-128 108c-23,-50 -27,-88 -10,-105 7,-7 17,-10 31,-10 19,0 44,7 73,21 3,1 5,2 8,4 -7,24 -13,51 -17,80 -29,4 -56,10 -81,17 -1,-2 -2,-5 -4,-7zm-14 166c-51,-18 -81,-42 -81,-66 0,-23 30,-48 81,-66 3,-1 5,-2 8,-3 13,23 28,46 45,69 -17,24 -32,47 -45,69 -3,-1 -5,-2 -8,-3zm108 129c-49,23 -87,27 -104,10 -17,-17 -13,-55 10,-104 2,-3 3,-5 4,-8 25,7 52,13 81,17 4,29 10,56 17,81 -3,1 -5,2 -8,4zm167 14c-18,51 -43,81 -66,81 -24,0 -48,-30 -67,-81 0,-3 -1,-5 -2,-8 22,-13 45,-28 69,-45 23,17 46,32 69,45 -1,3 -2,5 -3,8zm128 -108c24,49 27,87 11,104 -17,17 -55,13 -105,-10 -2,-2 -5,-3 -7,-4 7,-25 13,-52 17,-81 29,-4 56,-10 80,-17 2,3 3,5 4,8zm-39 -101c18,-23 33,-46 45,-69 3,1 6,2 8,3 52,18 81,43 81,66 0,24 -29,48 -81,66 -2,1 -5,2 -8,3 -12,-22 -27,-45 -45,-69z"/>
   </g>
   <g>
   </g>
   <g>
   </g>
   <g>
   </g>
   <g>
   </g>
   <g>
   </g>
   <g>
   </g>
   <g>
   </g>
   <g>
   </g>
   <g>
   </g>
   <g>
   </g>
   <g>
   </g>
   <g>
   </g>
   <g>
   </g>
   <g>
   </g>
   <g>
   </g>
  </g>
  <g id="_2048408203616">
   <g>
    <g>
     <path class="fil1" d="M11144 10039c30,-22 50,-57 50,-97 0,-66 -54,-119 -119,-119 -66,0 -120,53 -120,119 0,40 20,75 50,97 -59,27 -100,86 -100,155 0,10 8,19 18,19 10,0 19,-9 19,-19 0,-73 59,-133 133,-133 73,0 132,60 132,133 0,10 9,19 19,19 10,0 18,-9 18,-19 0,-69 -41,-128 -100,-155zm-69 -15c-46,0 -83,-37 -83,-82 0,-45 37,-82 83,-82 45,0 82,37 82,82 0,45 -37,82 -82,82z"/>
    </g>
   </g>
   <g>
    <g>
     <path class="fil1" d="M10833 9237c-33,-32 -75,-49 -121,-48 -92,1 -166,77 -165,170 0,43 17,83 47,114 21,21 32,48 32,77l0 21c0,43 35,78 78,78l21 0c43,0 79,-35 79,-78l0 -21c0,-29 11,-56 31,-77 31,-31 48,-73 48,-117 0,-45 -18,-87 -50,-119zm-66 334c0,23 -19,41 -42,41l-21 0c-23,0 -41,-18 -41,-41l0 -3 104 0 0 3 0 0zm42 -123c-23,23 -37,52 -41,83l-35 0 0 -106 55 -55c7,-7 7,-19 0,-26 -7,-7 -19,-7 -26,0l-47 47 -47 -47c-8,-7 -19,-7 -26,0 -8,7 -8,19 0,26l54 55 0 106 -35 0c-4,-31 -18,-60 -40,-84 -24,-24 -37,-55 -37,-89 -1,-72 57,-132 129,-133 0,0 1,0 2,0 34,0 67,14 92,38 25,25 39,58 39,93 0,35 -14,67 -37,92z"/>
    </g>
   </g>
   <g>
    <g>
     <path class="fil1" d="M10539 9655c-7,-7 -19,-7 -26,0l-111 111c-7,7 -7,18 0,26 4,3 9,5 13,5 5,0 10,-2 13,-5l111 -111c7,-7 7,-19 0,-26z"/>
    </g>
   </g>
   <g>
    <g>
     <path class="fil1" d="M11027 9766l-111 -111c-7,-7 -19,-7 -26,0 -7,7 -7,19 0,26l111 111c4,3 8,5 13,5 5,0 10,-2 13,-5 7,-7 7,-19 0,-26z"/>
    </g>
   </g>
   <g>
    <g>
     <path class="fil1" d="M10715 9693c-11,0 -19,9 -19,19l0 70c0,11 8,19 19,19 10,0 18,-8 18,-19l0 -70c0,-10 -8,-19 -18,-19z"/>
    </g>
   </g>
   <g>
    <g>
     <circle class="fil1" cx="11032" cy="9901" r="18"/>
    </g>
   </g>
   <g>
    <g>
     <circle class="fil1" cx="11100" cy="9901" r="18"/>
    </g>
   </g>
   <g>
    <g>
     <path class="fil1" d="M10784 10039c30,-22 50,-57 50,-97 0,-66 -54,-119 -119,-119 -66,0 -119,53 -119,119 0,40 19,75 50,97 -60,27 -101,86 -101,155 0,10 8,19 18,19 11,0 19,-9 19,-19 0,-73 59,-133 133,-133 73,0 133,60 133,133 0,10 8,19 18,19 10,0 19,-9 19,-19 0,-69 -42,-128 -101,-155zm-69 -15c-46,0 -83,-37 -83,-82 0,-45 37,-82 83,-82 45,0 82,37 82,82 0,45 -37,82 -82,82z"/>
    </g>
   </g>
   <g>
    <g>
     <circle class="fil1" cx="10681" cy="9901" r="18"/>
    </g>
   </g>
   <g>
    <g>
     <circle class="fil1" cx="10749" cy="9901" r="18"/>
    </g>
   </g>
   <g>
    <g>
     <path class="fil1" d="M10424 10039c30,-22 50,-57 50,-97 0,-66 -53,-119 -119,-119 -66,0 -119,53 -119,119 0,40 19,75 50,97 -60,27 -101,86 -101,155 0,10 8,19 18,19 11,0 19,-9 19,-19 0,-73 60,-133 133,-133 73,0 133,60 133,133 0,10 8,19 18,19 10,0 19,-9 19,-19 0,-69 -42,-128 -101,-155zm-69 -15c-45,0 -82,-37 -82,-82 0,-45 37,-82 82,-82 45,0 82,37 82,82 0,45 -37,82 -82,82z"/>
    </g>
   </g>
   <g>
    <g>
     <circle class="fil1" cx="10397" cy="9901" r="18"/>
    </g>
   </g>
   <g>
    <g>
     <circle class="fil1" cx="10329" cy="9901" r="18"/>
    </g>
   </g>
   <g>
   </g>
   <g>
   </g>
   <g>
   </g>
   <g>
   </g>
   <g>
   </g>
   <g>
   </g>
   <g>
   </g>
   <g>
   </g>
   <g>
   </g>
   <g>
   </g>
   <g>
   </g>
   <g>
   </g>
   <g>
   </g>
   <g>
   </g>
   <g>
   </g>
  </g>
  <g id="_2048412927296">
   <g>
    <g>
     <g>
      <g>
       <path class="fil1" d="M8501 10137c-140,0 -253,113 -253,252 0,82 40,159 106,206l3 2c15,9 17,38 17,44l0 2 0 83c0,16 8,30 22,38l85 43c6,3 13,5 20,5 6,0 13,-2 19,-5l85 -43c15,-8 24,-22 24,-38l0 -82c0,-42 25,-56 25,-56l10 -6c56,-48 89,-118 89,-193 0,-139 -113,-252 -252,-252zm0 632l-85 -43 170 0 -85 43zm85 -125l0 40 -170 0 0 -41 0 -1 171 0 -1 2zm50 -94c0,0 -28,13 -42,50l-185 0c-5,-15 -14,-30 -31,-39 -53,-38 -88,-101 -88,-172 0,-116 94,-210 211,-210 116,0 210,94 210,210 0,65 -29,122 -75,161z"/>
       <path class="fil1" d="M8522 10221c-12,0 -21,9 -21,21 0,12 9,21 21,21 47,0 105,43 105,107 0,12 9,21 21,21 11,0 21,-9 21,-21 0,-96 -75,-149 -147,-149z"/>
      </g>
     </g>
    </g>
    <g>
    </g>
    <g>
    </g>
    <g>
    </g>
    <g>
    </g>
    <g>
    </g>
    <g>
    </g>
    <g>
    </g>
    <g>
    </g>
    <g>
    </g>
    <g>
    </g>
    <g>
    </g>
    <g>
    </g>
    <g>
    </g>
    <g>
    </g>
    <g>
    </g>
   </g>
   <g>
   </g>
   <g>
   </g>
   <g>
   </g>
   <g>
   </g>
   <g>
   </g>
   <g>
   </g>
   <g>
   </g>
   <g>
   </g>
   <g>
   </g>
   <g>
   </g>
   <g>
   </g>
   <g>
   </g>
   <g>
   </g>
   <g>
   </g>
   <g>
   </g>
  </g>
  <g id="_2048412937408">
   <g>
    <path class="fil1" d="M9758 6764l-837 0c-48,0 -87,39 -87,87l0 516c0,48 39,86 87,86l335 0 0 78 -68 0c-32,0 -58,26 -58,58 0,32 26,59 58,59l302 0c32,0 58,-27 58,-59 0,-32 -26,-58 -58,-58l-68 0 0 -78 336 0c47,0 86,-38 86,-86l0 -516c0,-48 -39,-87 -86,-87zm-14 589l-810 0 0 -489 810 0 0 489 0 0z"/>
    <g>
     <g>
      <g>
       <path class="fil1" d="M9248 7206c-5,0 -10,-2 -14,-5l-86 -71c-5,-4 -8,-11 -8,-17 0,-7 3,-13 8,-17l86 -71c9,-8 23,-7 31,3 8,9 7,23 -3,31l-65 54 65 54c10,8 11,22 3,31 -4,5 -11,8 -17,8z"/>
      </g>
     </g>
     <g>
      <g>
       <path class="fil1" d="M9430 7206c-6,0 -13,-3 -17,-8 -8,-9 -7,-23 3,-31l65 -54 -65 -54c-10,-8 -11,-22 -3,-31 8,-10 22,-11 31,-3l86 71c5,4 8,10 8,17 0,6 -3,13 -8,17l-86 71c-4,3 -9,5 -14,5z"/>
      </g>
     </g>
     <g>
      <path class="fil1" d="M9298 7276c-2,0 -4,0 -6,-1 -12,-3 -18,-16 -15,-28l82 -281c3,-12 15,-19 27,-15 12,3 19,15 15,27l-81 282c-3,10 -12,16 -22,16z"/>
     </g>
    </g>
   </g>
   <g>
   </g>
   <g>
   </g>
   <g>
   </g>
   <g>
   </g>
   <g>
   </g>
   <g>
   </g>
   <g>
   </g>
   <g>
   </g>
   <g>
   </g>
   <g>
   </g>
   <g>
   </g>
   <g>
   </g>
   <g>
   </g>
   <g>
   </g>
   <g>
   </g>
  </g>
  <g id="_2048434050848">
   <g>
    <path class="fil1" d="M14392 8166c9,3 18,-2 21,-11l20 -62c3,-9 -2,-18 -11,-21 -8,-2 -18,2 -20,11l-20 62c-3,9 1,18 10,21z"/>
    <path class="fil1" d="M14675 8567l-62 -20c-9,-3 -18,2 -21,11 -2,8 2,17 11,20l62 20c9,3 18,-2 21,-10 3,-9 -2,-18 -11,-21z"/>
    <path class="fil1" d="M13990 8346l-63 -21c-8,-2 -17,2 -20,11 -3,9 2,18 10,21l63 20c8,2 18,-2 20,-11 3,-8 -2,-18 -10,-20z"/>
    <path class="fil1" d="M14639 8268l-58 30c-9,4 -12,14 -8,22 2,4 6,7 10,8 4,2 8,1 12,-1l59 -29c8,-5 11,-14 7,-22 -4,-9 -14,-12 -22,-8z"/>
    <path class="fil1" d="M13997 8596l-58 30c-8,4 -11,14 -7,22 2,4 5,7 9,8 4,2 9,1 13,-1l58 -29c8,-5 11,-14 7,-22 -4,-9 -14,-12 -22,-8z"/>
    <path class="fil1" d="M14460 8746c-4,-8 -14,-11 -22,-7 -8,4 -11,14 -7,22l30 58c2,4 5,7 9,8 4,2 9,1 13,-1 8,-4 11,-14 7,-22l-30 -58z"/>
    <path class="fil1" d="M14133 8178c2,4 5,7 9,8 4,1 9,1 13,-1 8,-4 11,-14 7,-22l-30 -58c-4,-9 -14,-12 -22,-8 -8,5 -11,14 -7,22l30 59z"/>
    <path class="fil1" d="M14357 8275c-103,-33 -214,23 -248,126 -2,9 2,18 11,21 9,3 18,-2 21,-10 27,-86 120,-134 206,-106 8,3 18,-2 20,-10 3,-9 -2,-18 -10,-21z"/>
    <path class="fil1" d="M14382 8197c-146,-47 -303,33 -351,179 -35,111 1,231 92,303l-11 33 -35 109c-3,9 2,18 10,21l16 5 -10 31c-3,9 2,18 11,21l93 30c9,3 18,-2 21,-11l10 -31 15 5c9,3 18,-2 21,-10l35 -109 11 -33c115,-6 215,-82 251,-192 47,-147 -33,-304 -179,-351zm-84 510c-7,0 -14,5 -16,12l-9 28 -125 -40 10 -29c2,-6 -1,-14 -6,-18 -86,-62 -122,-173 -89,-274 41,-129 180,-199 309,-158 129,42 200,181 158,309 -33,102 -126,170 -232,170z"/>
   </g>
   <g>
   </g>
   <g>
   </g>
   <g>
   </g>
   <g>
   </g>
   <g>
   </g>
   <g>
   </g>
   <g>
   </g>
   <g>
   </g>
   <g>
   </g>
   <g>
   </g>
   <g>
   </g>
   <g>
   </g>
   <g>
   </g>
   <g>
   </g>
   <g>
   </g>
  </g>
  <g id="_2048434044128">
   <g>
    <g>
     <g>
      <path class="fil1" d="M12039 10591c1,5 5,9 9,10 2,0 4,0 6,0 1,0 84,-19 123,-21 7,0 12,-6 12,-13 -1,-7 -7,-13 -14,-12 -41,2 -123,20 -126,21 -7,1 -12,8 -10,15z"/>
      <path class="fil1" d="M12087 10452c2,0 4,0 6,0 1,0 83,-19 122,-21 7,0 13,-6 12,-13 0,-7 -6,-13 -13,-12 -41,2 -123,20 -127,21 -7,1 -11,8 -10,15 1,5 5,9 10,10z"/>
      <path class="fil1" d="M12391 10504c-7,-2 -14,2 -16,9l-125 484c-5,21 -26,33 -46,28l-298 -77 7 -29c20,-1 71,-4 117,8 108,28 176,71 176,71 4,2 8,3 12,1 4,-1 7,-4 8,-8l141 -546c1,-6 -2,-12 -7,-15 0,0 -9,-5 -25,-12 -6,-3 -14,0 -17,6 -3,7 0,14 6,17 6,3 11,5 15,7l-134 520c-26,-15 -85,-44 -168,-66 -54,-14 -112,-10 -130,-8 -13,-10 -53,-39 -106,-53 -86,-22 -160,-26 -192,-26l135 -521c26,0 103,3 191,26 46,12 81,36 94,46l-126 488c-1,5 1,10 4,13 3,3 8,4 12,3 2,0 144,-42 262,-50 6,-1 10,-5 12,-10l131 -509c1,-4 0,-8 -3,-11 -2,-3 -6,-5 -11,-5 -109,12 -225,49 -226,49 -7,2 -11,9 -9,16 2,7 10,10 16,8 1,0 103,-32 204,-45l-125 482c-92,7 -193,33 -236,44l122 -474c2,-5 0,-10 -4,-13 -2,-2 -46,-40 -110,-57 -112,-29 -205,-27 -209,-27 -5,1 -10,5 -12,10l-141 546c-1,4 0,8 3,11 1,2 4,4 7,5 1,0 2,0 3,0 1,0 93,-2 202,26 45,12 80,36 94,46l-8 29 -298 -76c-20,-6 -33,-27 -27,-47l124 -484c2,-7 -2,-14 -9,-16 -7,-2 -14,2 -15,9l-125 484c-9,34 12,69 46,78l620 160c34,9 69,-11 78,-46l125 -484c2,-6 -2,-13 -9,-15z"/>
      <path class="fil1" d="M12058 10517c1,4 5,8 10,9 1,1 3,1 5,0 1,0 84,-18 123,-20 7,-1 12,-7 12,-14 0,-7 -6,-12 -13,-12 -42,2 -124,21 -127,21 -7,2 -11,9 -10,16z"/>
      <path class="fil1" d="M12020 10666c1,4 5,8 9,9 2,1 4,1 6,0 1,0 84,-18 122,-20 8,-1 13,-7 13,-14 -1,-7 -7,-12 -14,-12 -41,2 -123,20 -126,21 -7,2 -12,9 -10,16z"/>
      <path class="fil1" d="M11948 10437c-72,-38 -165,-38 -169,-38 -7,0 -13,6 -13,13 1,6 5,11 10,13 1,0 2,0 3,0 1,0 91,0 157,34 6,4 14,1 17,-5 4,-6 1,-14 -5,-17z"/>
      <path class="fil1" d="M11929 10511c-72,-38 -165,-37 -169,-37 -7,0 -13,6 -13,13 0,6 4,11 10,12 1,0 2,0 3,0 1,0 91,0 157,35 6,3 14,1 17,-6 4,-6 1,-14 -5,-17z"/>
      <path class="fil1" d="M12001 10740c1,5 4,8 9,10 2,0 4,0 6,0 1,0 83,-19 122,-21 7,0 13,-6 12,-13 0,-7 -6,-13 -13,-12 -41,2 -123,20 -127,21 -7,1 -11,8 -9,15z"/>
      <path class="fil1" d="M11910 10586c-72,-38 -165,-38 -169,-38 -7,0 -13,6 -13,13 0,6 4,11 10,12 1,1 2,1 3,1 1,0 90,-1 157,34 6,4 14,1 17,-5 3,-6 1,-14 -5,-17z"/>
      <path class="fil1" d="M11871 10734c-72,-37 -165,-37 -169,-37 -7,0 -12,6 -12,13 0,6 4,11 9,12 1,1 2,1 4,1 0,0 90,-1 156,34 7,3 14,1 18,-5 3,-7 0,-14 -6,-18z"/>
      <path class="fil1" d="M11890 10660c-72,-38 -165,-37 -168,-37 -8,0 -13,6 -13,13 0,6 4,11 9,12 2,0 3,0 4,0 1,0 90,0 157,35 6,3 14,1 17,-6 3,-6 1,-14 -6,-17z"/>
     </g>
    </g>
   </g>
   <g>
   </g>
   <g>
   </g>
   <g>
   </g>
   <g>
   </g>
   <g>
   </g>
   <g>
   </g>
   <g>
   </g>
   <g>
   </g>
   <g>
   </g>
   <g>
   </g>
   <g>
   </g>
   <g>
   </g>
   <g>
   </g>
   <g>
   </g>
   <g>
   </g>
  </g>
  <g id="_2048404277376">
   <g>
    <g>
     <path class="fil1" d="M12660 8814c-3,-4 -6,-6 -11,-7l-95 -19c-9,-1 -17,4 -19,13l-9 43c-3,1 -5,2 -7,1l-26 -39c-6,-8 -15,-10 -23,-5l-81 55c-9,5 -10,14 -5,22l25 37c-1,2 -4,4 -4,6l-43 -8c-5,-1 -8,-1 -12,2 -4,3 -6,6 -7,11l-19 95c-1,4 -1,8 2,12 3,4 6,6 11,7l43 8c0,4 1,5 1,8l-40 26c-8,6 -10,15 -4,23l54 81c6,8 15,10 23,5l38 -26c2,1 4,4 6,4l-8 43c-1,5 -1,8 2,12 3,4 6,6 11,7l95 19c9,2 17,-4 19,-13l8 -43c4,0 5,-1 8,-1l26 40c5,8 15,10 23,4l81 -54c8,-6 10,-15 5,-23l-26 -38c1,-2 3,-4 4,-6l43 8c9,2 17,-4 19,-13l19 -95c1,-4 0,-8 -2,-12 -3,-4 -6,-6 -11,-7l-43 -8c1,-3 -1,-5 -1,-8l38 -25c8,-6 10,-15 5,-23l-55 -81c-5,-9 -14,-10 -22,-5l-38 26c-3,-1 -5,-4 -7,-4l11 -43c1,-4 0,-8 -2,-12zm40 69l37 55 -34 22c-7,5 -9,14 -7,20 2,3 4,18 4,21 1,4 1,8 3,10 3,4 6,6 11,7l38 8 -13 63 -38 -7c-5,-1 -8,-1 -12,2 -3,2 -5,5 -7,8 -1,3 -10,15 -11,18 -6,6 -7,14 -2,21l23 34 -55 36 -23 -34c-2,-4 -5,-6 -10,-7 -5,-2 -35,4 -40,7 -4,3 -6,6 -7,11l-8 38 -63 -12 7 -39c1,-4 1,-8 -2,-12 -2,-3 -5,-4 -8,-6 -3,-2 -15,-10 -18,-12 -6,-6 -14,-6 -21,-2l-34 23 -36 -54 34 -23c4,-3 6,-6 7,-11 2,-5 -4,-35 -8,-40 -2,-4 -6,-6 -10,-7l-39 -7 13 -64 39 8c4,1 8,0 12,-3 3,-1 4,-5 6,-8 2,-3 10,-14 12,-17 6,-6 6,-15 2,-21l-23 -34 54 -37 23 34c3,4 6,6 11,7 5,2 34,-4 40,-7 4,-3 6,-6 7,-11l7 -38 64 12 -8 39c-1,5 0,8 2,12 2,3 5,5 9,7 3,1 14,10 17,11 6,6 14,7 21,2l34 -23 0 0z"/>
     <path class="fil1" d="M12519 8965c-30,20 -38,61 -18,91 20,30 61,38 91,18 30,-20 38,-61 18,-91 -20,-30 -61,-38 -91,-18zm54 82c-15,10 -35,6 -45,-9 -10,-15 -6,-36 9,-46 15,-10 35,-5 45,9 10,15 6,36 -9,46z"/>
     <path class="fil1" d="M12692 8721c54,25 101,65 135,117 100,149 60,353 -90,453 -56,38 -122,56 -188,55l-1 33c74,2 146,-19 207,-60 165,-110 209,-335 99,-499 -37,-56 -88,-100 -149,-129l-13 30z"/>
     <path class="fil1" d="M12387 9301c-40,-24 -76,-59 -104,-100 -86,-129 -69,-303 42,-413 6,-6 7,-14 2,-21l-103 -155 81 -55 104 155c4,7 12,10 20,7 38,-16 76,-24 114,-26l-1 -32c-37,1 -75,9 -113,22l-97 -144 41 -27c8,-5 10,-15 5,-23l-37 -54c-5,-8 -14,-10 -22,-5l-218 146c-8,5 -10,14 -4,23l36 54c5,8 14,10 23,4l40 -27 97 144c-114,121 -130,307 -37,446 30,44 70,83 114,108l17 -27zm-254 -707l190 -127 18 27 -40 27 -109 73 -41 27 -18 -27z"/>
     <path class="fil1" d="M12825 8550l-68 -14 -6 32 29 6 -212 142 19 27 212 -142 -6 30 32 6 13 -68c2,-9 -4,-17 -13,-19z"/>
     <path class="fil1" d="M12533 9310l-18 -27 -212 142 6 -30 -32 -6 -14 68c-1,9 4,17 13,19l68 13 6 -31 -29 -6 212 -142 0 0z"/>
     <rect class="fil1" transform="matrix(0.0602029 -0.0402626 0.0402626 0.0602029 12378 8784.06)" width="452" height="452"/>
     <rect class="fil1" transform="matrix(0.0602029 -0.0402626 0.0402626 0.0602029 12687.1 9246.21)" width="452" height="452"/>
     <rect class="fil1" transform="matrix(0.0602029 -0.0402626 0.0402626 0.0602029 12763.6 8860.6)" width="452" height="452"/>
     <rect class="fil1" transform="matrix(0.0602029 -0.0402626 0.0402626 0.0602029 12301.5 9169.67)" width="452" height="452"/>
    </g>
   </g>
   <g>
   </g>
   <g>
   </g>
   <g>
   </g>
   <g>
   </g>
   <g>
   </g>
   <g>
   </g>
   <g>
   </g>
   <g>
   </g>
   <g>
   </g>
   <g>
   </g>
   <g>
   </g>
   <g>
   </g>
   <g>
   </g>
   <g>
   </g>
   <g>
   </g>
  </g>
  <g id="_2048406791408">
   <g>
    <g>
     <path class="fil1" d="M15588 6995c10,10 26,13 40,7 18,-9 25,-30 17,-48 -9,-18 -30,-25 -48,-16 -14,6 -21,21 -20,36l-216 105c-20,-36 -49,-64 -83,-83l5 -5c7,1 14,0 21,-3 9,-4 15,-11 18,-20l82 6c0,1 1,3 1,4 9,18 30,25 48,17 18,-9 25,-30 16,-48 -1,-3 -3,-6 -6,-9l67 -93c7,1 14,0 20,-4 18,-8 25,-30 17,-47 -9,-18 -30,-25 -48,-17 -18,9 -25,30 -16,48 1,3 3,6 6,9l-67 93c-7,-1 -14,0 -20,4 -9,4 -15,11 -18,19l-82 -5c0,-2 -1,-3 -1,-5 -9,-17 -30,-25 -48,-16 -18,8 -25,30 -16,47 1,3 3,6 5,8l-6 7c-54,-23 -118,-23 -175,5 -106,52 -150,180 -98,286 44,91 145,137 240,114l19 37 -43 21 10 22 22 -11 78 160c17,36 60,50 95,33 35,-17 50,-60 33,-95l-78 -160 21 -11 -10 -21 -43 21 -18 -37c45,-37 73,-90 78,-147 11,8 25,10 37,4 9,-4 15,-12 18,-21l88 -8c0,1 0,2 1,3 9,18 30,25 48,17 17,-9 25,-30 16,-48 0,0 -1,-1 -1,-1l58 -39c9,3 19,3 28,-2 18,-8 25,-30 17,-47 -9,-18 -30,-25 -48,-17 -17,9 -25,30 -16,48 0,1 0,1 1,1l-58 40c-9,-4 -19,-4 -29,1 -9,4 -15,12 -18,20l-87 9c0,-2 -1,-3 -1,-4 -9,-17 -30,-25 -48,-16 -3,1 -5,3 -7,5 -3,-16 -8,-32 -14,-48l216 -105zm19 -36c6,-3 14,0 16,5 3,6 1,13 -5,16 -6,3 -13,1 -16,-5 -3,-6 0,-13 5,-16zm-78 -160c6,-3 13,-1 16,5 3,6 1,13 -5,16 -6,3 -13,1 -16,-5 -3,-6 -1,-13 5,-16zm-97 153c6,-3 13,-1 16,5 3,6 1,13 -5,16 -6,3 -13,1 -16,-5 -3,-6 -1,-13 5,-16zm-149 -7c6,-3 13,0 16,6 3,6 1,13 -5,15 -6,3 -13,1 -16,-5 -3,-6 0,-13 5,-16zm377 121c5,-3 13,-1 15,5 3,6 1,13 -5,16 -6,3 -13,1 -16,-5 -3,-6 0,-13 6,-16zm-102 89c6,-3 13,0 16,6 3,5 0,13 -6,15 -6,3 -13,1 -16,-5 -3,-6 0,-13 6,-16zm-143 413c12,24 2,52 -21,64 -24,11 -52,1 -64,-22l-78 -160 85 -42 78 160zm-152 -150l-16 -33c7,-3 14,-6 22,-10 7,-3 14,-7 20,-11l17 33 -43 21zm-5 -64c-94,46 -208,7 -254,-87 -46,-95 -7,-209 87,-255 49,-23 102,-24 149,-7l-24 30c-35,-10 -74,-8 -109,9 -76,38 -108,130 -71,207 37,76 130,108 207,71 44,-22 74,-63 83,-108l38 -10c-7,62 -45,120 -106,150zm-120 -192c-18,8 -25,30 -17,47 9,18 30,25 48,17 14,-7 21,-22 20,-36l108 -53c7,19 10,38 8,58l-30 7c-10,-11 -27,-15 -42,-8 -17,9 -25,30 -16,48 8,18 30,25 47,16 14,-6 21,-20 20,-33l16 -4c-10,33 -34,63 -68,80 -65,31 -143,4 -175,-60 -31,-65 -4,-144 61,-175 26,-13 54,-16 81,-11l-7 8c-7,-1 -14,0 -21,3 -18,9 -25,30 -17,48 9,18 30,25 48,16 18,-8 25,-30 16,-47 -1,-3 -3,-6 -5,-8l11 -13c25,11 48,29 63,53l-109 53c-10,-10 -26,-13 -40,-6zm26 26c3,6 1,13 -5,16 -6,3 -13,1 -16,-5 -3,-6 -1,-13 5,-16 6,-3 13,0 16,5zm95 33c3,6 1,13 -5,16 -6,3 -13,1 -16,-5 -3,-6 0,-13 6,-16 5,-3 13,-1 15,5zm-62 -128c3,6 0,13 -5,16 -6,3 -13,0 -16,-5 -3,-6 -1,-14 5,-16 6,-3 13,-1 16,5zm168 86l-36 9c1,-20 -3,-41 -11,-62l32 -15c10,22 14,45 15,68zm-57 -74c-16,-28 -41,-49 -68,-62l23 -28c31,16 58,42 77,74l-32 16zm96 59c5,-3 13,0 15,6 3,6 1,13 -5,16 -6,2 -13,0 -16,-6 -3,-6 0,-13 6,-16z"/>
    </g>
   </g>
   <g>
   </g>
   <g>
   </g>
   <g>
   </g>
   <g>
   </g>
   <g>
   </g>
   <g>
   </g>
   <g>
   </g>
   <g>
   </g>
   <g>
   </g>
   <g>
   </g>
   <g>
   </g>
   <g>
   </g>
   <g>
   </g>
   <g>
   </g>
   <g>
   </g>
  </g>
  <g id="_2048412940592">
   <g>
    <path class="fil1" d="M13686 9875c4,0 7,-5 7,-9l-4 -33c0,-4 -4,-7 -9,-7 -4,1 -8,5 -7,9l4 33c0,4 4,7 9,7z"/>
    <path class="fil1" d="M13897 10000l-33 4c-4,0 -7,4 -7,9 1,4 5,7 9,7l33 -4c4,0 7,-4 7,-9 0,-4 -5,-7 -9,-7z"/>
    <path class="fil1" d="M13539 10039l-33 4c-4,0 -7,4 -7,9 1,4 5,8 9,7l33 -3c4,-1 7,-5 7,-9 -1,-5 -5,-8 -9,-8z"/>
    <path class="fil1" d="M13819 9871l-20 26c-3,3 -3,8 1,11 2,2 4,2 6,2 2,0 4,-1 5,-3l21 -26c3,-3 2,-8 -1,-11 -4,-3 -9,-2 -12,1z"/>
    <path class="fil1" d="M13594 10152l-21 26c-3,3 -2,8 1,11 2,2 4,2 6,2 3,0 5,-1 6,-3l20 -26c3,-3 3,-8 -1,-11 -3,-3 -9,-2 -11,1z"/>
    <path class="fil1" d="M13835 10126c-3,-3 -8,-3 -11,1 -3,4 -2,9 1,12l26 20c1,1 4,2 6,2 2,0 4,-1 5,-3 3,-4 2,-9 -1,-12l-26 -20z"/>
    <path class="fil1" d="M13570 9934c1,1 4,2 6,1 2,0 4,-1 5,-3 3,-3 2,-8 -1,-11l-26 -21c-3,-3 -8,-2 -11,2 -3,3 -2,8 1,11l26 21z"/>
    <path class="fil1" d="M13692 9932c-54,6 -93,54 -87,108 0,5 4,8 9,8 4,-1 8,-5 7,-9 -5,-45 28,-86 73,-91 4,0 7,-4 7,-9 -1,-4 -5,-8 -9,-7z"/>
    <path class="fil1" d="M13687 9891c-76,9 -131,78 -123,154 7,58 48,105 104,119l2 17 6 57c0,5 5,8 9,8l8 -1 2 16c0,5 4,8 9,7l49 -5c4,-1 8,-5 7,-9l-2 -16 8 -1c5,-1 8,-5 8,-9l-7 -57 -1 -17c51,-26 81,-82 75,-140 -8,-76 -77,-131 -154,-123zm66 250c-3,2 -5,5 -4,9l1 14 -65 8 -1 -15c-1,-4 -3,-7 -7,-7 -52,-11 -91,-54 -97,-107 -7,-67 42,-128 109,-135 67,-8 128,41 136,108 5,53 -23,103 -72,125z"/>
   </g>
   <g>
   </g>
   <g>
   </g>
   <g>
   </g>
   <g>
   </g>
   <g>
   </g>
   <g>
   </g>
   <g>
   </g>
   <g>
   </g>
   <g>
   </g>
   <g>
   </g>
   <g>
   </g>
   <g>
   </g>
   <g>
   </g>
   <g>
   </g>
   <g>
   </g>
  </g>
  <g id="_2048412945936">
   <g>
    <path class="fil1" d="M12529 7437l2 -121c-12,-1 -21,-11 -21,-23 1,-13 12,-24 25,-24l108 3c13,0 24,11 24,24 -1,12 -10,22 -22,23l-3 120c25,10 46,25 63,45 2,4 2,9 -2,11 -1,2 -3,2 -5,2 -2,0 -4,-1 -6,-3 -16,-19 -37,-34 -61,-42 -3,-1 -5,-4 -5,-8l2 -126 -45 0c-5,-1 -8,-4 -8,-8 0,-5 3,-8 8,-8l59 1c5,0 8,-3 9,-8 0,-4 -4,-8 -8,-8l-108 -2c-5,0 -8,4 -9,8 0,4 4,8 8,8l17 0c4,0 8,4 8,8 -1,5 -4,8 -9,8l-2 0 -3 126c0,3 -2,6 -6,7 -56,18 -95,69 -97,127 -1,75 61,137 138,139 18,0 36,-3 53,-9 4,-2 9,0 10,4 2,4 0,9 -4,10 -19,7 -39,11 -59,10 -87,-1 -155,-71 -154,-154 2,-63 43,-119 103,-140z"/>
    <circle class="fil1" transform="matrix(-0.0241512 -0.000463381 -0.000477295 0.0234472 12521.8 7606)" r="335"/>
    <circle class="fil1" transform="matrix(-0.0241512 -0.000463381 -0.000477295 0.0234472 12553.5 7638.05)" r="335"/>
    <path class="fil1" d="M12626 7675c5,-1 9,0 11,4 2,4 0,9 -4,11 -17,7 -34,10 -53,10 -68,-1 -123,-56 -121,-123 0,-21 6,-42 17,-60 2,-3 5,-4 9,-3l3 0c0,0 0,0 1,0 12,4 18,9 24,13 5,5 9,8 20,8 10,1 14,-3 20,-8 7,-5 15,-12 31,-12 16,1 24,8 30,13 6,5 10,9 20,9 11,1 15,-2 21,-7 5,-4 12,-9 24,-12 1,0 1,0 1,0l3 -1c4,0 7,2 8,4 0,0 1,1 1,1 2,4 0,8 -4,10 -1,1 -3,2 -5,1l0 0c-9,3 -13,6 -18,10 -7,5 -15,10 -32,10 -15,0 -23,-7 -30,-13 -6,-5 -10,-9 -19,-9 -10,0 -14,3 -20,8 -7,6 -15,12 -31,12 -17,0 -24,-6 -31,-12 -4,-3 -8,-6 -15,-9 -8,15 -12,31 -12,47 -1,58 46,106 106,107 16,1 31,-2 45,-9l0 0z"/>
    <path class="fil1" d="M12741 7445l3 -156c-12,-1 -21,-12 -21,-24 0,-13 11,-23 25,-23l108 2c13,0 24,11 23,24 0,12 -10,22 -22,23l-2 126c0,4 -4,8 -8,8 -5,0 -8,-4 -8,-8l2 -126 -46 -1c-4,0 -8,-3 -8,-8 0,-4 4,-8 9,-8l59 2c4,0 8,-4 8,-8 0,-4 -3,-8 -8,-8l-108 -2c-4,0 -8,3 -8,8 0,4 4,7 8,8l16 0c5,0 8,4 8,8 0,4 -4,8 -8,8l-3 0 -3 157c0,1 0,1 0,2l-84 220c-5,13 -4,25 3,34 6,10 18,15 32,15l168 3c14,1 26,-4 33,-13 7,-9 8,-21 4,-35l-75 -222c-1,-4 1,-9 6,-10 4,-1 8,1 10,5l74 222c6,19 4,36 -6,49 -10,13 -27,20 -47,20l-167 -3c-20,0 -36,-8 -46,-22 -9,-13 -11,-31 -4,-49l83 -218z"/>
    <path class="fil1" d="M12863 7610c2,-2 5,-2 7,-1 3,0 5,2 6,5l21 64c3,8 2,16 -1,21 -4,4 -11,7 -20,7l-167 -4c-10,0 -16,-3 -20,-7 -3,-5 -4,-13 0,-21l24 -63c1,-3 3,-5 5,-5 3,-1 5,0 7,1 5,4 9,6 19,6 9,1 14,-3 20,-8 7,-5 15,-12 31,-12 15,1 23,8 30,13 6,5 10,9 19,9 10,1 15,-2 19,-5l0 0zm-49 8c-6,-5 -10,-9 -20,-9 -9,0 -14,3 -20,8 -7,6 -15,12 -30,12 -9,0 -15,-2 -20,-4l-20 54c-1,4 -2,6 -1,7 0,0 2,1 6,1l167 3c4,0 6,-1 7,-1 0,-1 0,-3 -1,-6l-19 -55c-4,2 -11,3 -19,3 -16,0 -24,-7 -30,-13l0 0z"/>
   </g>
  </g>
  <g id="_2048405329824">
   <g>
    <g>
     <g>
      <path class="fil1" d="M11273 7231c1,2 3,3 6,3 1,0 2,0 3,0 0,-1 39,-20 59,-26 3,-1 5,-5 4,-8 -1,-4 -5,-6 -8,-5 -21,6 -60,26 -61,27 -4,1 -5,5 -3,9z"/>
      <path class="fil1" d="M11279 7154c1,0 2,0 3,0 1,0 40,-20 59,-26 4,-1 6,-5 5,-8 -1,-4 -5,-6 -8,-5 -21,7 -60,26 -62,27 -3,1 -4,5 -3,9 2,2 4,3 6,3z"/>
      <path class="fil1" d="M11439 7143c-3,0 -6,3 -7,6l-2 260c0,11 -9,20 -20,20l-160 -2 0 -15c10,-3 35,-11 60,-11 58,1 97,14 98,14 2,1 4,0 6,-1 2,-1 3,-3 3,-5l2 -293c1,-3 -2,-6 -5,-7 0,0 -5,-1 -14,-3 -3,0 -7,2 -8,6 0,3 2,7 6,7 3,1 6,2 8,2l-3 279c-15,-4 -48,-12 -93,-12 -29,0 -57,9 -66,12 -8,-4 -32,-13 -60,-13 -46,-1 -84,6 -100,10l3 -279c13,-3 52,-12 100,-11 24,0 45,8 53,11l-3 262c0,3 1,5 3,6 3,1 5,1 7,0 1,0 67,-39 126,-58 3,-1 4,-3 5,-6l2 -273c0,-2 -1,-4 -3,-6 -1,-1 -4,-1 -6,0 -53,19 -107,52 -108,52 -3,2 -4,6 -2,10 2,3 6,4 9,2 0,-1 48,-29 97,-49l-3 259c-45,15 -93,41 -113,52l2 -255c0,-2 -1,-5 -4,-6 -1,0 -28,-14 -62,-14 -61,-1 -107,12 -109,12 -3,1 -5,3 -5,6l-3 293c0,3 1,4 3,6 1,1 3,1 4,1 1,0 1,0 2,0 0,0 46,-13 105,-12 24,0 45,8 53,11l0 16 -160 -2c-11,0 -20,-9 -20,-20l3 -259c0,-4 -3,-7 -7,-7 -4,0 -7,3 -7,6l-2 260c0,19 14,34 33,34l333 3c18,0 33,-15 33,-33l3 -260c0,-3 -3,-6 -7,-6z"/>
      <path class="fil1" d="M11273 7191c1,2 3,3 6,3 1,0 2,0 3,0 0,-1 40,-20 59,-26 4,-1 6,-5 5,-8 -2,-4 -5,-6 -9,-5 -20,7 -59,26 -61,27 -3,1 -5,5 -3,9z"/>
      <path class="fil1" d="M11272 7271c1,2 4,3 6,3 1,0 2,0 3,0 1,-1 40,-20 59,-26 4,-1 6,-5 5,-8 -1,-4 -5,-6 -9,-5 -20,6 -59,26 -61,27 -3,1 -4,5 -3,9z"/>
      <path class="fil1" d="M11207 7164c-41,-10 -87,2 -89,2 -4,1 -6,5 -5,9 1,2 3,4 6,5 1,0 1,-1 2,-1 0,0 45,-11 83,-2 4,1 7,-1 8,-5 1,-3 -1,-7 -5,-8z"/>
      <path class="fil1" d="M11207 7204c-41,-10 -88,2 -90,2 -3,1 -5,5 -5,8 1,3 4,5 7,5 0,0 1,0 2,0 0,0 45,-11 83,-2 3,1 7,-1 8,-5 1,-3 -1,-7 -5,-8z"/>
      <path class="fil1" d="M11272 7311c1,2 3,3 6,3 1,0 2,0 3,0 0,-1 40,-20 59,-26 3,-1 5,-5 4,-8 -1,-4 -4,-6 -8,-5 -20,6 -60,26 -61,27 -3,1 -5,5 -3,9z"/>
      <path class="fil1" d="M11207 7244c-41,-10 -88,2 -90,2 -4,1 -6,5 -5,8 1,3 3,5 6,5 1,0 2,0 2,0 1,0 46,-11 84,-2 3,1 7,-1 8,-5 0,-4 -2,-7 -5,-8z"/>
      <path class="fil1" d="M11206 7324c-41,-10 -88,2 -90,2 -3,1 -6,5 -5,8 1,3 4,5 7,5 0,0 1,0 1,0 1,0 46,-11 84,-2 3,1 7,-1 8,-5 1,-4 -2,-7 -5,-8z"/>
      <path class="fil1" d="M11206 7284c-41,-10 -88,2 -90,2 -3,1 -5,5 -4,8 0,3 3,5 6,5 1,0 1,0 2,0 0,0 45,-11 83,-2 4,1 7,-1 8,-5 1,-4 -1,-7 -5,-8z"/>
     </g>
    </g>
   </g>
   <g>
   </g>
   <g>
   </g>
   <g>
   </g>
   <g>
   </g>
   <g>
   </g>
   <g>
   </g>
   <g>
   </g>
   <g>
   </g>
   <g>
   </g>
   <g>
   </g>
   <g>
   </g>
   <g>
   </g>
   <g>
   </g>
   <g>
   </g>
   <g>
   </g>
  </g>
  <g id="_2048399397280">
   <g>
    <path class="fil1" d="M15700 10941c-22,0 -40,18 -40,41 0,23 18,41 40,41 23,0 41,-18 41,-41 0,-23 -18,-41 -41,-41zm0 71c-16,0 -29,-14 -29,-30 0,-16 13,-30 29,-30 17,0 30,14 30,30 0,16 -13,30 -30,30z"/>
    <path class="fil1" d="M15700 10965c-3,0 -5,2 -5,5 0,3 2,6 5,6 4,0 7,3 7,6 0,3 2,6 5,6 3,0 6,-3 6,-6 0,-10 -8,-17 -18,-17z"/>
    <path class="fil1" d="M15871 10982c0,-18 -19,-35 -52,-47 -1,0 -2,-1 -3,-1 0,-1 1,-2 1,-3 16,-32 17,-57 4,-70 -13,-12 -38,-11 -70,4 -1,1 -2,1 -3,1 0,-1 0,-2 -1,-2 -12,-34 -28,-52 -47,-52 -18,0 -34,18 -46,52 -1,0 -1,1 -1,2 -1,0 -2,0 -3,-1 -32,-15 -57,-16 -70,-4 -13,13 -12,38 4,70 0,1 0,2 1,3 -1,0 -2,1 -3,1 -34,12 -52,29 -52,47 0,18 18,35 52,47 1,0 2,1 3,1 -1,1 -1,2 -1,3 -16,32 -17,57 -4,70 6,5 14,8 25,8 12,0 27,-4 45,-12 1,0 2,-1 3,-1 0,1 0,2 1,3 12,33 28,52 46,52 19,0 35,-19 47,-52 1,-1 1,-2 1,-3 1,0 2,1 3,1 18,8 33,12 45,12 11,0 19,-3 25,-8 13,-13 12,-38 -4,-70 0,-1 -1,-2 -1,-3 1,0 2,-1 3,-1 33,-12 52,-29 52,-47zm-115 -107c16,-8 30,-11 40,-11 8,0 13,2 17,5 9,10 7,30 -6,58 0,1 -1,2 -2,4 -13,-4 -28,-7 -44,-9 -2,-16 -5,-31 -9,-45 1,-1 2,-1 4,-2zm-2 107c0,7 0,15 -1,22 -5,5 -10,11 -15,16 -5,5 -10,10 -16,15 -7,0 -14,0 -22,0 -7,0 -14,0 -21,0 -6,-5 -11,-10 -16,-15 -6,-5 -11,-11 -15,-16 -1,-7 -1,-15 -1,-22 0,-7 0,-15 1,-22 4,-5 9,-11 15,-16 5,-5 10,-10 16,-15 7,0 14,0 21,0 8,0 15,0 22,0 6,5 11,10 16,15 5,5 10,11 15,16 1,7 1,15 1,22zm-8 -46c-2,-2 -4,-4 -6,-6 4,1 7,1 11,1 0,4 1,8 1,12 -2,-2 -4,-4 -6,-7zm-19 -18c-6,-5 -12,-10 -18,-14 11,-9 22,-16 33,-22 3,12 6,25 8,38 -8,-1 -15,-1 -23,-2zm-18 0c-3,0 -6,0 -9,0 -2,0 -5,0 -8,0 3,-3 6,-5 8,-7 3,2 6,4 9,7zm-35 0c-8,1 -15,1 -23,2 2,-13 5,-26 8,-38 11,6 22,13 32,22 -5,4 -11,9 -17,14zm-13 12c-2,2 -4,4 -6,6 -2,3 -4,5 -6,7 0,-4 0,-8 1,-12 4,0 7,0 11,-1zm-24 26c-5,5 -10,11 -15,17 -8,-11 -15,-22 -21,-32 11,-3 24,-6 38,-8 -1,7 -2,15 -2,23zm-1 17c0,3 0,6 0,9 0,3 0,6 0,9 -2,-3 -5,-6 -7,-9 2,-3 5,-6 7,-9zm1 35c0,8 1,16 2,23 -14,-2 -27,-4 -38,-8 6,-10 13,-21 21,-32 5,6 10,12 15,17zm12 13c2,2 4,5 6,7 2,2 4,4 6,6 -4,-1 -7,-1 -11,-1 -1,-4 -1,-8 -1,-12zm25 25c6,5 12,10 17,14 -10,9 -21,16 -32,22 -3,-12 -6,-25 -8,-38 8,1 15,1 23,2zm18 0c3,0 6,0 8,0 3,0 6,0 9,0 -3,3 -6,5 -9,8 -2,-3 -5,-5 -8,-8zm35 0c8,-1 15,-1 23,-2 -2,13 -5,26 -8,38 -11,-6 -22,-13 -33,-22 6,-4 12,-9 18,-14zm13 -12c2,-2 4,-4 6,-6 2,-2 4,-5 6,-7 0,4 -1,8 -1,12 -4,0 -7,0 -11,1zm24 -26c5,-5 10,-11 15,-17 8,11 15,22 21,32 -12,4 -24,6 -38,8 1,-7 2,-15 2,-23zm1 -17c0,-3 0,-6 0,-9 0,-3 0,-6 0,-9 2,3 5,6 7,9 -2,3 -5,6 -7,9zm-1 -35c0,-8 -1,-16 -2,-23 14,2 26,5 38,8 -6,10 -13,21 -21,32 -5,-6 -10,-12 -15,-17zm-100 -89c10,-28 23,-44 36,-44 13,0 27,16 37,44 0,2 1,3 1,5 -12,6 -25,15 -38,25 -12,-10 -25,-19 -38,-25 1,-2 1,-3 2,-5zm-71 60c-12,-28 -15,-48 -5,-58 3,-3 9,-5 17,-5 10,0 24,3 40,11 1,1 3,1 4,2 -4,14 -7,29 -9,45 -16,2 -31,5 -44,9 -1,-2 -2,-3 -3,-4zm-7 91c-29,-10 -45,-23 -45,-36 0,-13 16,-26 45,-36 1,-1 3,-1 4,-2 7,12 15,25 25,38 -10,13 -18,26 -25,38 -1,-1 -3,-1 -4,-2zm59 71c-27,13 -48,15 -57,6 -10,-9 -7,-30 6,-58 0,-1 1,-2 2,-4 13,4 28,7 44,9 2,16 5,31 9,45 -1,1 -3,1 -4,2zm92 8c-10,28 -24,44 -37,44 -13,0 -26,-16 -36,-44 -1,-2 -1,-3 -2,-5 13,-6 26,-15 38,-25 13,10 26,19 38,25 0,2 -1,3 -1,5zm70 -60c13,28 15,49 6,58 -9,9 -30,7 -57,-6 -2,-1 -3,-1 -4,-2 4,-14 7,-29 9,-45 16,-2 31,-5 44,-9 1,2 2,3 2,4zm-21 -55c10,-13 18,-26 25,-38 1,1 3,1 4,2 29,10 45,23 45,36 0,13 -16,26 -45,36 -1,1 -3,1 -4,2 -7,-12 -15,-25 -25,-38z"/>
   </g>
   <g>
   </g>
   <g>
   </g>
   <g>
   </g>
   <g>
   </g>
   <g>
   </g>
   <g>
   </g>
   <g>
   </g>
   <g>
   </g>
   <g>
   </g>
   <g>
   </g>
   <g>
   </g>
   <g>
   </g>
   <g>
   </g>
   <g>
   </g>
   <g>
   </g>
  </g>
  <g id="_2048433389632">
   <g>
    <g>
     <g>
      <path class="fil1" d="M15276 9226c-1,3 -4,6 -7,7 -2,0 -3,0 -5,0 0,0 -61,-14 -90,-15 -5,0 -9,-5 -9,-10 0,-5 5,-9 10,-9 30,2 91,15 93,16 6,1 9,6 8,11z"/>
      <path class="fil1" d="M15240 9125c-1,1 -3,1 -4,0 -1,0 -62,-13 -91,-15 -5,0 -9,-4 -9,-9 1,-5 5,-9 10,-9 31,2 91,15 94,15 5,1 8,6 7,11 -1,4 -3,6 -7,7z"/>
      <path class="fil1" d="M15015 9163c5,-2 11,1 12,6l92 349c4,15 20,24 35,20l220 -55 -5 -21c-15,-1 -53,-3 -87,6 -80,20 -130,51 -130,51 -3,2 -6,2 -9,1 -2,-1 -5,-3 -5,-6l-105 -394c-1,-4 1,-9 5,-11 0,0 7,-3 19,-8 5,-2 10,0 12,4 3,5 1,10 -4,13 -5,2 -8,3 -11,5l99 374c19,-10 63,-32 124,-47 40,-10 83,-7 96,-6 10,-7 39,-28 79,-38 63,-16 118,-19 142,-19l-100 -376c-19,1 -76,3 -142,19 -33,9 -59,26 -69,33l93 353c1,3 0,6 -3,9 -2,2 -6,3 -9,2 -1,0 -106,-31 -194,-37 -4,0 -7,-3 -8,-6l-97 -367c-1,-3 0,-6 2,-9 2,-2 5,-3 8,-3 81,9 167,35 168,35 5,2 7,7 6,12 -2,5 -7,7 -12,6 -1,0 -76,-23 -150,-33l92 348c68,5 142,23 175,32l-91 -343c-1,-3 0,-7 3,-9 1,-1 34,-29 82,-41 83,-21 151,-19 154,-19 4,0 8,3 9,7l104 394c1,3 0,5 -2,8 -1,1 -3,2 -5,3 -1,0 -2,0 -2,0 -1,0 -69,-1 -149,19 -34,8 -60,26 -70,33l6 21 220 -55c15,-4 24,-19 20,-34l-92 -349c-1,-5 2,-10 7,-11 5,-1 10,2 11,6l93 349c6,25 -9,50 -34,57l-459 115c-26,7 -52,-8 -58,-33l-92 -349c-2,-5 1,-10 6,-11z"/>
      <path class="fil1" d="M15261 9172c0,3 -3,6 -6,7 -2,0 -3,0 -5,0 0,0 -62,-13 -90,-15 -6,0 -10,-4 -9,-10 0,-5 4,-9 10,-8 30,1 91,14 93,15 5,1 9,6 7,11z"/>
      <path class="fil1" d="M15290 9279c-1,4 -4,6 -7,7 -1,1 -3,1 -4,0 -1,0 -62,-13 -91,-14 -5,-1 -9,-5 -9,-10 0,-5 5,-9 10,-9 30,2 91,15 94,15 5,1 8,6 7,11z"/>
      <path class="fil1" d="M15343 9114c53,-27 122,-27 125,-27 5,0 9,5 9,10 0,4 -3,8 -7,9 -1,0 -1,0 -2,0 -1,0 -67,0 -116,25 -5,2 -11,0 -13,-4 -2,-5 -1,-10 4,-13z"/>
      <path class="fil1" d="M15357 9168c53,-27 122,-27 125,-27 5,0 10,4 9,9 0,5 -3,8 -7,9 0,0 -1,1 -2,1 -1,0 -67,-1 -116,24 -5,3 -10,1 -13,-4 -2,-4 0,-10 4,-12z"/>
      <path class="fil1" d="M15304 9333c-1,4 -3,6 -7,7 -1,0 -3,0 -4,0 -1,0 -62,-13 -91,-15 -5,0 -9,-4 -9,-9 1,-6 5,-9 10,-9 31,1 91,14 94,15 5,1 8,6 7,11z"/>
      <path class="fil1" d="M15371 9222c54,-28 122,-27 125,-27 6,0 10,4 10,9 0,4 -3,8 -7,9 -1,0 -2,0 -3,0 -1,0 -67,0 -116,25 -4,2 -10,1 -13,-4 -2,-4 0,-10 4,-12z"/>
      <path class="fil1" d="M15400 9329c53,-27 122,-27 125,-27 5,0 9,4 9,10 0,4 -3,7 -7,8 -1,1 -2,1 -2,1 -1,0 -67,-1 -116,24 -5,3 -11,1 -13,-3 -3,-5 -1,-11 4,-13z"/>
      <path class="fil1" d="M15386 9275c53,-27 122,-27 125,-27 5,1 9,5 9,10 0,4 -3,8 -7,9 -1,0 -2,0 -3,0 0,0 -67,0 -116,25 -4,2 -10,0 -12,-4 -3,-5 -1,-10 4,-13z"/>
     </g>
    </g>
   </g>
   <g>
   </g>
   <g>
   </g>
   <g>
   </g>
   <g>
   </g>
   <g>
   </g>
   <g>
   </g>
   <g>
   </g>
   <g>
   </g>
   <g>
   </g>
   <g>
   </g>
   <g>
   </g>
   <g>
   </g>
   <g>
   </g>
   <g>
   </g>
   <g>
   </g>
  </g>
 </g>
</svg>
